<?xml version="1.0" standalone="no"?>
<!DOCTYPE svg PUBLIC "-//W3C//DTD SVG 20010904//EN"
 "http://www.w3.org/TR/2001/REC-SVG-20010904/DTD/svg10.dtd">
<svg version="1.0" xmlns="http://www.w3.org/2000/svg"
 width="386.000000pt" height="131.000000pt" viewBox="0 0 386.000000 131.000000"
 preserveAspectRatio="xMidYMid meet">

<g transform="translate(0.000000,131.000000) scale(0.100000,-0.100000)"
 stroke="none">
<path fill="#011E41" d="M410 1274 c-194 -52 -338 -190 -385 -369 -19 -76 -19 -191 1 -269 47
-181 198 -327 386 -371 136 -32 306 -9 430 57 82 43 175 139 214 217 l32 63
10 -61 c32 -183 176 -290 387 -291 180 0 365 100 431 236 33 68 42 167 21 235
l-14 46 31 -10 c17 -5 36 -11 42 -13 18 -4 27 -227 16 -372 l-9 -123 -47 -44
c-51 -46 -54 -67 -17 -109 61 -69 321 -116 432 -78 82 29 95 86 30 139 -37 31
-41 39 -41 79 0 50 2 51 74 29 150 -45 311 29 389 180 26 50 26 50 27 18 0
-43 34 -131 64 -168 21 -27 31 -30 83 -32 32 0 105 -4 163 -8 130 -9 194 6
259 62 79 67 102 164 60 251 -24 48 -103 113 -186 153 -81 38 -104 58 -101 87
7 59 61 54 136 -13 66 -59 109 -68 146 -32 34 34 33 60 -5 135 -41 82 -71 106
-124 97 -50 -9 -70 -9 -171 0 -64 6 -92 4 -131 -9 -96 -32 -162 -124 -163
-225 0 -103 55 -174 197 -252 39 -22 74 -46 77 -54 13 -35 -27 -71 -67 -60
-12 4 -51 35 -87 70 -75 72 -88 78 -124 60 -26 -14 -26 -13 -19 13 5 15 8 68
7 117 -1 123 -27 191 -103 266 -92 90 -197 103 -324 41 -78 -38 -87 -39 -87
-7 0 28 -25 45 -68 45 -87 0 -339 -96 -361 -138 -6 -11 -11 -31 -11 -43 0 -19
-4 -16 -28 17 -41 56 -98 103 -160 132 -66 30 -198 41 -283 23 -127 -27 -255
-116 -303 -213 l-26 -52 0 45 c0 120 -65 263 -165 365 -75 76 -139 113 -240
139 -74 19 -222 18 -295 -1z m169 -232 c77 -61 151 -255 154 -402 2 -115 -36
-170 -118 -170 -69 0 -117 47 -170 165 -54 123 -83 270 -65 335 12 44 44 88
74 101 34 14 87 2 125 -29z m942 -222 c64 -35 120 -319 72 -372 -20 -22 -51
-23 -80 -3 -46 32 -104 266 -82 332 15 48 50 64 90 43z m918 -41 c49 -17 71
-70 71 -172 0 -71 -4 -89 -23 -118 -19 -29 -30 -35 -66 -37 -71 -5 -74 2 -69
162 5 129 7 141 28 158 26 21 20 21 59 7z"/>
<path fill="#F28B00" d="M3614 1246 c-42 -19 -71 -59 -90 -125 -14 -46 -15 -68 -6 -132 21
-148 115 -339 166 -339 76 0 186 264 173 417 -11 145 -126 230 -243 179z"/>
<path fill="#F28B00" d="M3625 556 c-16 -8 -43 -28 -60 -45 -24 -26 -30 -41 -33 -94 -3 -52 0
-67 20 -96 67 -98 221 -91 275 12 69 132 -68 283 -202 223z"/>
</g>
</svg>
